<?xml version="1.0" encoding="iso-8859-1"?>
<!-- Generator: Adobe Illustrator 19.0.0, SVG Export Plug-In . SVG Version: 6.00 Build 0)  -->
<svg version="1.1" id="Layer_1" xmlns="http://www.w3.org/2000/svg" xmlns:xlink="http://www.w3.org/1999/xlink" x="0px" y="0px"
	 viewBox="0 0 511.985 511.985" style="enable-background:new 0 0 511.985 511.985;" xml:space="preserve">
<g>
	<g>
		<path d="M508.859,153.995l-22.625-22.632c-1.203-1.195-2.656-2.07-4.234-2.586c7.047-18.625,10.609-33.804,12.391-44.85
			c4.328-26.984,1.281-48.733-8.156-58.17c-8.359-8.359-23.874-10.109-35.404-10.109c-14.031,0-36.749,2.594-67.623,14.304
			c-0.516-1.531-1.375-2.977-2.594-4.195L357.988,3.125c-4.156-4.164-10.921-4.164-15.093,0l-45.249,45.264
			c-4.172,4.164-4.172,10.914,0,15.085l7.844,7.851c-12.594,8.57-25.265,18.062-37.943,28.445
			c-43.226,35.397-86.068,80.849-127.34,135.082c-12.093,15.89-24.077,32.576-35.937,50.029l-14.015-14.016
			c-2-2-4.718-3.125-7.546-3.125s-5.539,1.125-7.547,3.125l-45.256,45.266c-2,2-3.125,4.717-3.125,7.545s1.125,5.531,3.125,7.531
			l22.632,22.641c1.711,1.719,3.867,2.703,6.093,3.016c-19.07,32.154-37.725,66.279-55.865,102.23
			c-8.547,16.953,4.789,30.625,11.96,37.984c0.062,0.062,0.125,0.125,0.188,0.188c7.633,7.438,15.992,14.717,26.804,14.717
			c3.781,0,7.539-0.938,11.164-2.766c36.1-18.201,70.193-36.826,102.254-55.826c0.305,2.219,1.305,4.359,3.008,6.062l22.624,22.625
			c2.086,2.094,4.82,3.125,7.547,3.125c2.734,0,5.461-1.047,7.546-3.125l45.257-45.248c2-2.016,3.125-4.719,3.125-7.547
			s-1.125-5.547-3.125-7.547l-13.977-13.984c67.068-45.592,122.911-93.105,166.91-142.145c18.765-20.92,34.092-40.708,46.592-59.129
			l7.875,7.859c2.078,2.086,4.812,3.125,7.531,3.125c2.734,0,5.468-1.039,7.546-3.125l45.265-45.256c2-2,3.125-4.719,3.125-7.546
			C511.984,158.706,510.859,155.995,508.859,153.995z M346.021,40.842c0-2.945-1.188-5.617-3.125-7.546l7.562-7.539l7.53,7.539
			l-15.343,15.359c-0.031,0.008-0.062,0.023-0.062,0.031C344.692,46.741,346.021,43.952,346.021,40.842z M327.818,48.382
			c1.922,1.938,4.609,3.125,7.547,3.125c0.937,0,1.858-0.133,2.718-0.359c-4.718,2.641-9.483,5.421-14.249,8.343l-3.563-3.563
			L327.818,48.382z M82.709,293.49l7.546,7.547L75.17,316.131c1.93-1.938,3.117-4.594,3.117-7.547c0-2.938-1.188-5.609-3.125-7.547
			L82.709,293.49z M52.538,323.676l7.538-7.545c1.93,1.922,4.602,3.125,7.547,3.125s5.609-1.203,7.539-3.125l-15.085,15.076
			L52.538,323.676z M195.86,451.906l-7.546,7.547l-7.547-7.547l15.093-15.076c-1.929,1.922-3.125,4.594-3.125,7.531
			C192.735,447.312,193.93,449.968,195.86,451.906z M210.947,436.814c-1.93-1.922-4.602-3.125-7.547-3.125
			c-2.945,0.016-5.609,1.203-7.539,3.125l15.086-15.078l7.539,7.547L210.947,436.814z M377.457,252.156
			c-75.998,84.426-188.44,164.502-334.185,238.016c-0.93,0.469-1.398,0.469-1.555,0.469c-2.992,0-9.515-6.328-11.804-8.562
			c-9.781-10.031-8.851-11.875-8.101-13.359c42.725-84.701,88.271-159.041,135.378-220.953
			c40.256-52.904,81.935-97.146,123.863-131.488c89.856-73.576,152.667-79.294,169.776-79.294c13.358,0,19.28,2.859,20.312,3.859
			c1.484,1.523,6.53,13.516,2.031,40.546C468.282,110.895,449.33,172.315,377.457,252.156z M456.049,191.705l-3.562-3.562
			c3-4.898,5.781-9.679,8.375-14.335c-0.25,0.898-0.391,1.836-0.391,2.812c0,2.945,1.202,5.617,3.124,7.546L456.049,191.705z
			 M478.687,169.08c-1.937-1.93-4.608-3.125-7.546-3.125c-3.141,0-5.953,1.359-7.906,3.516c0.016-0.023,0.031-0.055,0.047-0.078
			l15.405-15.398l7.547,7.539L478.687,169.08z"/>
	</g>
</g>
<g>
	<g>
		<path d="M403.253,67.888c-5.89,0-10.671,4.781-10.671,10.671c0,5.89,4.781,10.664,10.671,10.664
			c5.891,0,10.672-4.773,10.672-10.664S409.143,67.888,403.253,67.888z"/>
	</g>
</g>
<g>
	<g>
		<path d="M433.424,98.067c-5.891,0-10.672,4.773-10.672,10.664s4.781,10.671,10.672,10.671s10.656-4.781,10.656-10.671
			C444.08,102.841,439.314,98.067,433.424,98.067z"/>
	</g>
</g>
<g>
	<g>
		<path d="M373.082,98.067c-5.906,0-10.672,4.773-10.672,10.664s4.766,10.671,10.672,10.671c5.891,0,10.656-4.781,10.656-10.671
			C383.738,102.841,378.972,98.067,373.082,98.067z"/>
	</g>
</g>
<g>
	<g>
		<path d="M403.253,128.238c-5.89,0-10.671,4.773-10.671,10.664c0,5.898,4.781,10.671,10.671,10.671
			c5.891,0,10.672-4.773,10.672-10.671C413.925,133.011,409.143,128.238,403.253,128.238z"/>
	</g>
</g>
<g>
	<g>
		<path d="M135.511,335.629c-5.89,0-10.664,4.781-10.671,10.672c0,5.891,4.781,10.672,10.671,10.672
			c5.891,0,10.672-4.781,10.672-10.672S141.402,335.629,135.511,335.629z"/>
	</g>
</g>
<g>
	<g>
		<path d="M165.682,365.801c-5.89,0-10.664,4.781-10.664,10.672s4.773,10.67,10.664,10.67s10.672-4.779,10.672-10.67
			C176.354,370.582,171.573,365.801,165.682,365.801z"/>
	</g>
</g>
<g>
	<g>
		<path d="M105.34,365.801c-5.89,0-10.671,4.781-10.671,10.672s4.781,10.67,10.671,10.67c5.891,0,10.664-4.779,10.664-10.67
			C116.004,370.582,111.231,365.801,105.34,365.801z"/>
	</g>
</g>
<g>
	<g>
		<path d="M135.511,395.986c-5.89,0-10.671,4.766-10.664,10.656c-0.008,5.891,4.773,10.672,10.664,10.672
			c5.891,0,10.664-4.781,10.672-10.672C146.183,400.752,141.402,395.986,135.511,395.986z"/>
	</g>
</g>
<g>
</g>
<g>
</g>
<g>
</g>
<g>
</g>
<g>
</g>
<g>
</g>
<g>
</g>
<g>
</g>
<g>
</g>
<g>
</g>
<g>
</g>
<g>
</g>
<g>
</g>
<g>
</g>
<g>
</g>
</svg>
